# xmcd CD database file
#
# Track frame offsets:
#	150
#	14897
#	35230
#	53930
#	70012
#	105710
#	128325
#	148500
#	184070
#	211330
#	241270
#
# Disc length: 3553 seconds
#
# Revision: 0
# Processed by: cddbd v1.5.1PL0 Copyright (c) Steve Scherf et al.
# Submitted via: CDex 1.51
#
DISCID=9e0ddf0b
DTITLE=Schoener, Eberhard - Harmonia Mundi
DYEAR=1993
DGENRE=New Age
TTITLE0=Cairo
TTITLE1=Salvador Di Bahia
TTITLE2=Bali
TTITLE3=Sydney
TTITLE4=Stuttgart - Movement 1
TTITLE5=Stuttgart - Movement 2
TTITLE6=Africa
TTITLE7=America
TTITLE8=Asia
TTITLE9=Oceania
TTITLE10=Europe
EXTD=YEAR: 1993
EXTT0=
EXTT1=
EXTT2=
EXTT3=
EXTT4=
EXTT5=
EXTT6=
EXTT7=
EXTT8=
EXTT9=
EXTT10=
PLAYORDER=
